<?xml version="1.0" encoding="UTF-8" standalone="no"?>
<svg version="1.1" xmlns="http://www.w3.org/2000/svg"><!-- id="logo" style="position: fixed; top: calc(50% - 50px - 8px); left: calc(50% - 50px); width: 1000px; height: 1000px;">-->
  <path style="fill:#181819;stroke:#19191a;stroke-width:1px;stroke-linecap:butt;stroke-linejoin:miter;stroke-opacity:1;fill-opacity:1"
d="
M 0.53806135,274.94935
100.61747,99.54135
220.60515,0
92.546552,276.02547 Z
"></path>
  <path style="fill:#181819;fill-opacity:1;stroke:#19191a;stroke-width:5.38061;stroke-opacity:1"
d="
m 113.79998,308.33311
c 9.57355,-1.82376
11.88406,-2.24139
23.94373,-4.32792
5.91867,-1.02403
14.15101,-2.4712
18.29408,-3.21593
4.14307,-0.74472
13.1018,-2.33721
19.90827,-3.53884
6.80648,-1.20164
17.82328,-3.15027
24.48179,-4.33029
18.32377,-3.24735
23.10484,-4.08615
33.35981,-5.85269
5.17884,-0.89212
10.62671,-1.85943
12.10638,-2.14957
1.47967,-0.29014
3.29562,-0.62988
4.03546,-0.75497
0.73983,-0.1251
2.79792,-0.48667
4.57352,-0.80349
1.7756,-0.31683
4.07581,-0.71561
5.11158,-0.88618
8.96418,-1.47619
20.30033,-3.66038
21.03307,-4.05253
2.38832,-1.27819
1.77603,-3.15362
-2.81523,-8.62286
-1.88163,-2.24146
-5.83962,-6.96295
-8.79554,-10.4922
-2.95591,-3.52924
-5.66856,-6.72547
-6.0281,-7.10273
-0.35954,-0.37726
-1.5651,-1.83002
-2.67901,-3.22836
-1.11391,-1.39835
-3.49321,-4.23734
-5.28734,-6.30888
-1.79413,-2.07154
-5.67605,-6.67196
-8.6265,-10.22317
-2.95046,-3.5512
-5.48553,-6.5778
-5.6335,-6.72576
-0.37365,-0.37365
-4.28741,-5.01582
-14.28948,-16.94894
-4.71286,-5.62274
-8.97619,-10.70742
-9.47406,-11.29928
-6.10313,-7.25537
-15.92376,-19.00661
-18.47427,-22.10606
-1.7756,-2.15777
-5.36208,-6.48233
-7.96995,-9.61015
l -4.74159,-5.68694
1.87608,-5.51119
c 1.91558,-5.62725
6.97827,-19.73707
10.37555,-28.91685
2.33489,-6.30915
2.58176,-6.98473
9.33919,-25.55792
3.01472,-8.286143
6.41293,-17.608056
7.55158,-20.715361
1.13865,-3.107304
4.64504,-12.792408
7.79198,-21.522454
3.14694,-8.730045
6.95142,-19.176147
8.4544,-23.213559
l 2.7327,-7.34075
2.79904,4.650443
c 1.53947,2.557744
6.1493,10.461506
10.24406,17.563915
4.09476,7.10241
8.64203,14.971557
10.10503,17.486994
1.46301,2.515437
3.13954,5.420968
3.72562,6.456736
0.58609,1.035769
4.90756,8.483996
9.60329,16.551618
4.69572,8.067622
9.03164,15.573578
9.63537,16.679898
0.60374,1.10633
1.54008,2.73789
2.08077,3.62569
0.54069,0.8878
5.23313,8.99907
10.42765,18.02505
5.19452,9.02598
12.03946,20.89023
15.211,26.36501
3.17153,5.47477
8.48535,14.67562
11.80848,20.44633
3.32314,5.77071
10.59834,18.36134
16.16713,27.97919
5.56879,9.61785
11.54686,20.01672
13.2846,23.10862
1.73774,3.09188
3.36471,5.87635
3.61548,6.1877
0.25077,0.31135
1.53598,2.50311
2.85601,4.87058
1.32002,2.36747
3.729,6.6047
5.35327,9.41607
8.73594,15.12061
18.30049,31.72841
22.62078,39.27848
0.59268,1.03577
3.7129,6.41865
6.93381,11.96195
3.22092,5.5433
5.85622,10.17448
5.85622,10.29151
0,0.11704
-37.22712,0.36244
-82.72694,0.54535
-45.49981,0.18292
-110.57161,0.44584
-144.60399,0.58426
l -61.87705,0.25169
z
"></path>
   <path style="fill:#ff004c;fill-opacity:1;stroke:#ff0048;stroke-width:5.19421;stroke-opacity:1"
d="
m 174.68513,145.93489
c -4.84574,-5.70493
-9.38384,-11.0596
-10.08466,-11.89926
l -1.27425,-1.52665
1.17867,-2.67332
c 1.50234,-3.40736
3.98791,-8.85424
9.00597,-19.73563
2.19711,-4.76432
4.62916,-10.07989
5.40457,-11.812373
0.77539,-1.732483
2.45257,-5.394321
3.72706,-8.137419
1.27448,-2.743096
3.11334,-6.759307
4.08633,-8.92491
0.97301,-2.165602
2.19392,-4.88245
2.71315,-6.037438
0.51923,-1.154988
1.86805,-4.108083
2.99737,-6.562434
1.12931,-2.45435
2.62393,-5.761816
3.32137,-7.349927
0.69744,-1.588109
2.42469,-5.36807
3.83835,-8.399915
1.41365,-3.031845
3.1548,-6.811807
3.86921,-8.399915
1.59219,-3.53937
11.29987,-24.805829
14.19919,-31.105937
1.16271,-2.526537
2.20487,-4.5937036
2.3159,-4.5937036
0.11105,0
1.6435,2.4215386
3.40547,5.3811956
1.76197,2.959658
4.00296,6.635689
4.97995,8.168958
1.33836,2.100366
1.69479,3.119876
1.44546,4.134665
-0.37429,1.5235
-5.21094,15.09202
-5.95372,16.702335
-0.26638,0.577494
-1.6232,4.357456
-3.01515,8.399915
-1.39196,4.04246
-3.25843,9.358031
-4.1477,11.812381
-0.88927,2.45435
-2.38018,6.706808
-3.31314,9.449905
-0.93296,2.743097
-2.27591,6.523059
-2.98435,8.399915
-0.70845,1.876857
-1.80527,4.948077
-2.43738,6.824933
-0.63213,1.876855
-1.679,4.82995
-2.32641,6.562433
-0.6474,1.732482
-2.34573,6.457436
-3.77406,10.499886
-1.42835,4.04246
-2.94196,8.29492
-3.36362,9.44991
-3.90605,10.69956
-8.00598,22.30871
-12.94678,36.65938
-0.67879,1.97158
-1.41917,3.92242
-1.64528,4.33517
-0.30153,0.55045
-2.75927,-2.01407
-9.22152,-9.62215
z
"></path>
</svg>